<svg id="Layer_1" version="1.1" viewBox="0 0 32 32" xml:space="preserve" xmlns="http://www.w3.org/2000/svg" enable-background="new 0 0 32 32"><path d="M29.2 5.4 27 2.8c-.3-.5-.9-.8-1.7-.8H6.7c-.8 0-1.4.3-1.9.8l-2 2.6c-.5.6-.8 1.3-.8 2v19.4C2 28.6 3.4 30 5.1 30h21.8c1.7 0 3.1-1.4 3.1-3.1V7.4c0-.7-.3-1.4-.8-2zm-13.4 19-7.9-7.9c-.2-.2 0-.5.2-.5h4.8v-2.8c0-.2.1-.3.3-.3h5.7c.2 0 .3.1.3.3V16H24c.2 0 .4.3.2.5l-7.9 7.9c-.2.1-.4.1-.5 0zM5.3 5.1c.8-1 2-1.6 3.2-1.6h14.6c1.3 0 2.6.6 3.5 1.6H5.3z" id="archive_x5F_folder" fill="#2d526e" class="fill-222a30"></path></svg>